name C:\Users\u0150099\Documents\master_thesis\3dpredictsim\Results\debug\Fal_s1_mtjc2_sc_cspx10_oy2_TrackAnkleQSubtQ_MTc2_MTPm_k1_d01_MTJm_nl_MG_exp5_table_d01_PF_Natali2010_ls146_ig21.mot
datacolumns 128
datarows 4
range 0.56101370 0.59467452
endheader
time	pelvis_tilt	pelvis_list	pelvis_rotation	pelvis_tx	pelvis_ty	pelvis_tz	hip_flexion_l	hip_adduction_l	hip_rotation_l	hip_flexion_r	hip_adduction_r	hip_rotation_r	knee_angle_l	knee_angle_r	ankle_angle_l	ankle_angle_r	subtalar_angle_l	subtalar_angle_r	mtj_angle_l	mtj_angle_r	mtp_angle_l	mtp_angle_r	lumbar_extension	lumbar_bending	lumbar_rotation	arm_flex_l	arm_add_l	arm_rot_l	arm_flex_r	arm_add_r	arm_rot_r	elbow_flex_l	elbow_flex_r	pro_sup_l	pro_sup_r	glut_med1_l/activation	glut_med2_l/activation	glut_med3_l/activation	glut_min1_l/activation	glut_min2_l/activation	glut_min3_l/activation	semimem_l/activation	semiten_l/activation	bifemlh_l/activation	bifemsh_l/activation	sar_l/activation	add_long_l/activation	add_brev_l/activation	add_mag1_l/activation	add_mag2_l/activation	add_mag3_l/activation	tfl_l/activation	pect_l/activation	grac_l/activation	glut_max1_l/activation	glut_max2_l/activation	glut_max3_l/activation	iliacus_l/activation	psoas_l/activation	quad_fem_l/activation	gem_l/activation	peri_l/activation	rect_fem_l/activation	vas_med_l/activation	vas_int_l/activation	vas_lat_l/activation	med_gas_l/activation	lat_gas_l/activation	soleus_l/activation	tib_post_l/activation	flex_dig_l/activation	flex_hal_l/activation	tib_ant_l/activation	per_brev_l/activation	per_long_l/activation	per_tert_l/activation	ext_dig_l/activation	ext_hal_l/activation	ercspn_l/activation	intobl_l/activation	extobl_l/activation	glut_med1_r/activation	glut_med2_r/activation	glut_med3_r/activation	glut_min1_r/activation	glut_min2_r/activation	glut_min3_r/activation	semimem_r/activation	semiten_r/activation	bifemlh_r/activation	bifemsh_r/activation	sar_r/activation	add_long_r/activation	add_brev_r/activation	add_mag1_r/activation	add_mag2_r/activation	add_mag3_r/activation	tfl_r/activation	pect_r/activation	grac_r/activation	glut_max1_r/activation	glut_max2_r/activation	glut_max3_r/activation	iliacus_r/activation	psoas_r/activation	quad_fem_r/activation	gem_r/activation	peri_r/activation	rect_fem_r/activation	vas_med_r/activation	vas_int_r/activation	vas_lat_r/activation	med_gas_r/activation	lat_gas_r/activation	soleus_r/activation	tib_post_r/activation	flex_dig_r/activation	flex_hal_r/activation	tib_ant_r/activation	per_brev_r/activation	per_long_r/activation	per_tert_r/activation	ext_dig_r/activation	ext_hal_r/activation	ercspn_r/activation	intobl_r/activation	extobl_r/activation	
          0.56101370	         -2.92083989	          1.42161568	         -6.11465495	          0.74614822	          0.90622365	          0.00785900	         27.94181905	          1.67966792	         -5.52897987	        -10.83768499	          0.98650500	          3.16986556	         -6.93236128	        -22.90924114	          1.62226652	          4.02494982	          0.16150154	          5.83181405	          3.12669874	         -0.21150636	         -3.43015997	         25.78976466	         -5.88307496	         -0.42562810	          1.35675965	         -1.78682264	        -13.44970710	         10.63108596	          3.59240331	        -14.23831772	         19.28597225	         21.17911328	         45.84919996	         86.51662706	         86.51662706	          0.07044891	          0.05000004	          0.05935012	          0.05000003	          0.05000004	          0.05000022	          0.26550831	          0.07044902	          0.07793896	          0.07044899	          0.06247404	          0.10429994	          0.11169928	          0.11331565	          0.08255266	          0.17781995	          0.05000100	          0.05935088	          0.11003178	          0.05000111	          0.05935018	          0.17721206	          0.08496807	          0.08874142	          0.20900903	          0.05000110	          0.05000009	          0.05000000	          0.05000002	          0.05000002	          0.05000002	          0.11782355	          0.13206062	          0.06027553	          0.10810287	          0.05340555	          0.05000008	          0.36599089	          0.08785365	          0.14819471	          0.27401994	          0.67638786	          0.41737322	          0.05207129	          0.11510656	          0.08362354	          0.26637203	          0.05000003	          0.05000000	          0.58738639	          0.15885203	          0.05000006	          0.05000052	          0.05000004	          0.05000003	          0.05000006	          0.05000090	          0.05000006	          0.05000006	          0.05000007	          0.05000025	          0.05000049	          0.56131409	          0.05000036	          0.05000005	          0.05000029	          0.05000016	          0.05000009	          0.08599507	          0.46093570	          0.05000000	          0.05000002	          0.05000001	          0.58994869	          0.18273537	          0.18655082	          0.15044035	          0.43639505	          0.65037532	          0.22725942	          0.51239397	          0.58548460	          0.51524773	          0.05000000	          0.05477246	          0.26228416	          0.05000001	          0.05000000	          0.09926120	          0.05000000	          0.05000000	          0.05000007	
          0.57223397	         -2.92397178	          1.50031863	         -6.37208548	          0.76448095	          0.90500463	          0.00751063	         27.89927980	          1.98568442	         -5.50168518	        -12.08159381	          0.47802485	          2.98258765	         -7.77437095	        -22.31441500	          1.28051243	          2.77135192	          0.00143334	          6.09475435	          3.16425416	         -1.62400682	         -2.94919126	         28.50718023	         -5.68757902	         -0.59517111	          1.47596294	         -2.74499468	        -13.45393259	          9.85488990	          3.14313163	        -14.20925739	         19.37110016	         20.78536353	         47.35958169	         86.51662706	         86.51662706	          0.05935021	          0.05935020	          0.05000003	          0.05935024	          0.05935023	          0.05001984	          0.22367927	          0.05935026	          0.06566021	          0.05935023	          0.05263178	          0.17479304	          0.09410188	          0.20387239	          0.09917353	          0.20529029	          0.05000004	          0.05000100	          0.09269704	          0.05000012	          0.05000009	          0.25606625	          0.09926114	          0.09926115	          0.37355716	          0.19706039	          0.08724298	          0.05000001	          0.05000002	          0.05000002	          0.05000001	          0.09926124	          0.11125536	          0.05591297	          0.10072700	          0.05935022	          0.05935022	          0.37042059	          0.15193733	          0.19569470	          0.23085000	          0.73819740	          0.43550420	          0.05000000	          0.09697230	          0.07044923	          0.22440692	          0.05000002	          0.05000000	          0.49484764	          0.13382599	          0.05000008	          0.05000058	          0.05000003	          0.05000002	          0.05000004	          0.05000015	          0.05057564	          0.15904501	          0.05000014	          0.05000070	          0.05837901	          0.54674051	          0.05730991	          0.05000006	          0.05000022	          0.05000014	          0.05000013	          0.07244713	          0.47115820	          0.05000000	          0.05000003	          0.05000005	          0.52037931	          0.19120024	          0.19074851	          0.15682930	          0.38999373	          0.57686441	          0.19145623	          0.43714698	          0.50898306	          0.43407397	          0.05000000	          0.05000014	          0.22096307	          0.05000001	          0.05000000	          0.08362327	          0.05000000	          0.05000003	          0.07621957	
          0.58345425	         -2.92448544	          1.59379484	         -6.60144325	          0.78313101	          0.90381991	          0.00710272	         27.86708497	          2.26562324	         -5.49258621	        -13.22997570	         -0.04915208	          2.77979160	         -9.32292772	        -21.83874888	          0.59952210	          1.28728199	         -0.21400805	          6.28294166	          3.19911523	         -3.18985040	         -2.36933218	         31.52619602	         -5.48229101	         -0.77841163	          1.58834833	         -3.73990344	        -13.46636458	          9.24635858	          2.61803984	        -14.17329893	         19.38640458	         20.44591489	         48.85223733	         86.51662706	         86.51662706	          0.05000000	          0.05000000	          0.10717954	          0.05000002	          0.05000001	          0.05000002	          0.18844012	          0.05000003	          0.05531589	          0.05000001	          0.05000022	          0.14725562	          0.25866522	          0.17175394	          0.08354967	          0.25740165	          0.07044880	          0.08363824	          0.07809326	          0.05000012	          0.16673485	          0.31354864	          0.08362324	          0.08362324	          0.50511554	          0.16601488	          0.07349864	          0.07193067	          0.12629082	          0.12169657	          0.07533941	          0.08362331	          0.09372784	          0.07044899	          0.08485822	          0.05000000	          0.05000001	          0.49848468	          0.18181789	          0.16486433	          0.55998742	          0.75546397	          0.67560029	          0.05000000	          0.08169497	          0.05935043	          0.18905313	          0.05935024	          0.05935026	          0.41688774	          0.11274263	          0.05935010	          0.05000052	          0.05000013	          0.05934983	          0.05000000	          0.05000009	          0.05000003	          0.32476092	          0.18806191	          0.07898729	          0.13885868	          0.46060529	          0.05000011	          0.05000018	          0.05935059	          0.05935059	          0.05937757	          0.06103358	          0.49052348	          0.09464582	          0.05935055	          0.05935019	          0.43839706	          0.16755145	          0.16642679	          0.13870434	          0.33931485	          0.54828187	          0.16129359	          0.36827742	          0.42879625	          0.36568856	          0.05000000	          0.05000002	          0.18615184	          0.05000000	          0.05000000	          0.07044899	          0.07260034	          0.05935025	          0.06421170	
          0.59467452	         -2.92288247	          1.71257872	         -6.80566913	          0.80197103	          0.90274631	          0.00667659	         27.76302949	          2.47997246	         -5.40347713	        -14.22473998	         -0.58826293	          2.58500333	        -11.16888873	        -21.57032415	         -0.09702765	         -0.43564762	         -0.44673565	          6.37043101	          3.42325388	         -4.82547393	         -1.84022279	         34.61331281	         -5.27314455	         -0.98719120	          1.69599607	         -4.73086373	        -13.48740995	          8.81197445	          2.03791343	        -14.12402788	         19.35174929	         20.10339327	         50.31115397	         86.51662706	         86.51662706	          0.34751111	          0.36158672	          0.37894325	          0.45652734	          0.37453591	          0.28068749	          0.17009600	          0.18711577	          0.12715124	          0.13889493	          0.07044901	          0.12405651	          0.21791427	          0.14469528	          0.07038700	          0.30542465	          0.05935008	          0.07046168	          0.27752890	          0.20276191	          0.26086571	          0.37657852	          0.07044898	          0.07044898	          0.42553801	          0.13986039	          0.11950895	          0.06059848	          0.10639456	          0.10252410	          0.06347020	          0.07044902	          0.07896165	          0.05935022	          0.14279056	          0.05935022	          0.05935022	          0.52545009	          0.15317372	          0.20125947	          0.47176547	          0.86010671	          0.81441858	          0.07394227	          0.09926115	          0.05000017	          0.15926910	          0.05000004	          0.05000004	          0.35120991	          0.09498082	          0.05000015	          0.05000051	          0.05000007	          0.05000003	          0.05935023	          0.05935022	          0.15889415	          0.30323086	          0.15843405	          0.06654347	          0.11698246	          0.53239936	          0.05935098	          0.05000053	          0.05000050	          0.05000040	          0.05002309	          0.05935049	          0.64958958	          0.07973502	          0.05000030	          0.05000003	          0.36933057	          0.14115486	          0.14020738	          0.11685241	          0.28585808	          0.46190380	          0.13588288	          0.31025780	          0.36124230	          0.30807680	          0.20786935	          0.20686868	          0.15682488	          0.45652740	          0.05000002	          0.05935023	          0.09862884	          0.05000002	          0.05409559	
